<svg width="1920" height="1077" viewBox="0 0 1920 1077" fill="none" xmlns="http://www.w3.org/2000/svg">
<g opacity="0.21">
<path d="M-406.231 583.469C-20.9952 204.626 504.316 114.124 767.085 381.327" stroke="url(#paint0_linear_129_132)"/>
<path d="M-167.804 825.919C217.432 447.077 742.743 356.575 1005.51 623.777" stroke="url(#paint1_linear_129_132)"/>
<path d="M-286.483 705.238C98.7528 326.395 624.064 235.893 886.833 503.096" stroke="url(#paint2_linear_129_132)"/>
<path d="M-48.0556 947.688C337.18 568.846 862.491 478.344 1125.26 745.546" stroke="url(#paint3_linear_129_132)"/>
<path d="M-421.199 568.248C-35.9637 189.405 489.347 98.9031 752.116 366.106" stroke="url(#paint4_linear_129_132)"/>
<path d="M-182.772 810.698C202.463 431.856 727.774 341.354 990.543 608.557" stroke="url(#paint5_linear_129_132)"/>
<path d="M-301.451 690.017C83.7843 311.174 609.096 220.672 871.864 487.875" stroke="url(#paint6_linear_129_132)"/>
<path d="M-63.0244 932.467C322.211 553.625 847.522 463.123 1110.29 730.325" stroke="url(#paint7_linear_129_132)"/>
<path d="M-436.168 553.027C-50.9322 174.184 474.379 83.6821 737.148 350.885" stroke="url(#paint8_linear_129_132)"/>
<path d="M-197.741 795.477C187.495 416.635 712.806 326.133 975.575 593.335" stroke="url(#paint9_linear_129_132)"/>
<path d="M-316.42 674.795C68.8158 295.953 594.127 205.451 856.896 472.654" stroke="url(#paint10_linear_129_132)"/>
<path d="M-77.9924 917.246C307.243 538.403 832.554 447.901 1095.32 715.104" stroke="url(#paint11_linear_129_132)"/>
<path d="M-451.136 537.806C-65.9008 158.963 459.41 68.461 722.179 335.664" stroke="url(#paint12_linear_129_132)"/>
<path d="M-212.709 780.256C172.526 401.413 697.837 310.911 960.606 578.114" stroke="url(#paint13_linear_129_132)"/>
<path d="M-331.388 659.574C53.8473 280.732 579.159 190.23 841.927 457.433" stroke="url(#paint14_linear_129_132)"/>
<path d="M-92.9611 902.025C292.274 523.182 817.586 432.68 1080.35 699.883" stroke="url(#paint15_linear_129_132)"/>
<path d="M-466.105 522.585C-80.8693 143.742 444.442 53.2398 707.211 320.443" stroke="url(#paint16_linear_129_132)"/>
<path d="M-227.678 765.035C157.558 386.192 682.869 295.69 945.638 562.893" stroke="url(#paint17_linear_129_132)"/>
<path d="M-346.357 644.353C38.8788 265.511 564.19 175.009 826.959 442.211" stroke="url(#paint18_linear_129_132)"/>
<path d="M-107.93 886.804C277.306 507.961 802.617 417.459 1065.39 684.662" stroke="url(#paint19_linear_129_132)"/>
<path d="M-481.073 507.363C-95.8378 128.521 429.473 38.0188 692.242 305.222" stroke="url(#paint20_linear_129_132)"/>
<path d="M-242.646 749.814C142.589 370.971 667.9 280.469 930.669 547.672" stroke="url(#paint21_linear_129_132)"/>
<path d="M-361.325 629.132C23.9103 250.29 549.222 159.788 811.99 426.99" stroke="url(#paint22_linear_129_132)"/>
<path d="M-122.898 871.583C262.337 492.74 787.649 402.238 1050.42 669.441" stroke="url(#paint23_linear_129_132)"/>
<path d="M-496.042 492.142C-110.806 113.3 414.505 22.7977 677.274 290" stroke="url(#paint24_linear_129_132)"/>
<path d="M-257.615 734.593C127.621 355.75 652.932 265.248 915.701 532.451" stroke="url(#paint25_linear_129_132)"/>
<path d="M-376.294 613.911C8.94178 235.068 534.253 144.566 797.022 411.769" stroke="url(#paint26_linear_129_132)"/>
<path d="M-137.866 856.362C247.369 477.519 772.68 387.017 1035.45 654.22" stroke="url(#paint27_linear_129_132)"/>
<path d="M-511.01 476.921C-125.775 98.0785 399.536 7.57655 662.305 274.779" stroke="url(#paint28_linear_129_132)"/>
<path d="M-272.583 719.372C112.652 340.529 637.963 250.027 900.732 517.23" stroke="url(#paint29_linear_129_132)"/>
<path d="M-391.262 598.69C-6.02673 219.847 519.284 129.345 782.053 396.548" stroke="url(#paint30_linear_129_132)"/>
<path d="M-152.835 841.141C232.4 462.298 757.711 371.796 1020.48 638.999" stroke="url(#paint31_linear_129_132)"/>
<path d="M1940.41 179.175C1555.18 558.017 1029.86 648.519 767.095 381.317" stroke="url(#paint32_linear_129_132)"/>
<path d="M2178.84 421.625C1793.6 800.468 1268.29 890.97 1005.52 623.767" stroke="url(#paint33_linear_129_132)"/>
<path d="M2060.16 300.943C1674.92 679.786 1149.61 770.288 886.843 503.085" stroke="url(#paint34_linear_129_132)"/>
<path d="M2298.59 543.394C1913.35 922.237 1388.04 1012.74 1125.27 745.536" stroke="url(#paint35_linear_129_132)"/>
<path d="M1954.31 193.309C1569.07 572.151 1043.76 662.653 780.995 395.45" stroke="url(#paint36_linear_129_132)"/>
<path d="M2192.74 435.759C1807.5 814.602 1282.19 905.104 1019.42 637.901" stroke="url(#paint37_linear_129_132)"/>
<path d="M2074.06 315.077C1688.82 693.92 1163.51 784.422 900.743 517.219" stroke="url(#paint38_linear_129_132)"/>
<path d="M2312.49 557.528C1927.25 936.371 1401.94 1026.87 1139.17 759.67" stroke="url(#paint39_linear_129_132)"/>
<path d="M1969.28 208.53C1584.04 587.372 1058.73 677.874 795.963 410.672" stroke="url(#paint40_linear_129_132)"/>
<path d="M2207.71 450.98C1822.47 829.823 1297.16 920.325 1034.39 653.122" stroke="url(#paint41_linear_129_132)"/>
<path d="M2089.03 330.298C1703.79 709.141 1178.48 799.643 915.711 532.44" stroke="url(#paint42_linear_129_132)"/>
<path d="M2327.45 572.749C1942.22 951.592 1416.91 1042.09 1154.14 774.891" stroke="url(#paint43_linear_129_132)"/>
<path d="M1984.25 223.751C1599.01 602.594 1073.7 693.096 810.932 425.893" stroke="url(#paint44_linear_129_132)"/>
<path d="M2222.67 466.201C1837.44 845.044 1312.13 935.546 1049.36 668.343" stroke="url(#paint45_linear_129_132)"/>
<path d="M2104 345.52C1718.76 724.362 1193.45 814.864 930.68 547.661" stroke="url(#paint46_linear_129_132)"/>
<path d="M2342.42 587.97C1957.19 966.813 1431.88 1057.31 1169.11 790.112" stroke="url(#paint47_linear_129_132)"/>
<path d="M1999.22 238.972C1613.98 617.815 1088.67 708.317 825.9 441.114" stroke="url(#paint48_linear_129_132)"/>
<path d="M2237.64 481.422C1852.41 860.265 1327.1 950.767 1064.33 683.564" stroke="url(#paint49_linear_129_132)"/>
<path d="M2118.96 360.741C1733.73 739.583 1208.42 830.085 945.648 562.883" stroke="url(#paint50_linear_129_132)"/>
<path d="M2357.39 603.191C1972.16 982.034 1446.84 1072.54 1184.08 805.333" stroke="url(#paint51_linear_129_132)"/>
<path d="M2014.18 254.193C1628.95 633.036 1103.64 723.538 840.869 456.335" stroke="url(#paint52_linear_129_132)"/>
<path d="M2252.61 496.643C1867.38 875.486 1342.06 965.988 1079.3 698.785" stroke="url(#paint53_linear_129_132)"/>
<path d="M2133.93 375.962C1748.7 754.805 1223.39 845.307 960.617 578.104" stroke="url(#paint54_linear_129_132)"/>
<path d="M2372.36 618.412C1987.12 997.255 1461.81 1087.76 1199.04 820.554" stroke="url(#paint55_linear_129_132)"/>
<path d="M2029.15 269.414C1643.92 648.257 1118.61 738.759 855.837 471.556" stroke="url(#paint56_linear_129_132)"/>
<path d="M2267.58 511.864C1882.34 890.707 1357.03 981.209 1094.26 714.006" stroke="url(#paint57_linear_129_132)"/>
<path d="M2148.9 391.183C1763.66 770.026 1238.35 860.528 975.585 593.325" stroke="url(#paint58_linear_129_132)"/>
<path d="M2387.33 633.633C2002.09 1012.48 1476.78 1102.98 1214.01 835.775" stroke="url(#paint59_linear_129_132)"/>
<path d="M2044.12 284.635C1658.89 663.478 1133.57 753.98 870.805 486.777" stroke="url(#paint60_linear_129_132)"/>
<path d="M2282.55 527.086C1897.31 905.928 1372 996.43 1109.23 729.228" stroke="url(#paint61_linear_129_132)"/>
<path d="M2163.87 406.404C1778.63 785.247 1253.32 875.749 990.554 608.546" stroke="url(#paint62_linear_129_132)"/>
<path d="M2402.3 648.854C2017.06 1027.7 1491.75 1118.2 1228.98 850.996" stroke="url(#paint63_linear_129_132)"/>
</g>
<defs>
<linearGradient id="paint0_linear_129_132" x1="529.192" y1="139.42" x2="-168.338" y2="825.376" gradientUnits="userSpaceOnUse">
<stop stop-color="#FF7E7E"/>
<stop offset="1" stop-color="#8F00FF"/>
</linearGradient>
<linearGradient id="paint1_linear_129_132" x1="767.619" y1="381.871" x2="70.0886" y2="1067.83" gradientUnits="userSpaceOnUse">
<stop stop-color="#FF7E7E"/>
<stop offset="1" stop-color="#8F00FF"/>
</linearGradient>
<linearGradient id="paint2_linear_129_132" x1="648.94" y1="261.189" x2="-48.5901" y2="947.144" gradientUnits="userSpaceOnUse">
<stop stop-color="#FF7E7E"/>
<stop offset="1" stop-color="#8F00FF"/>
</linearGradient>
<linearGradient id="paint3_linear_129_132" x1="887.367" y1="503.64" x2="189.837" y2="1189.59" gradientUnits="userSpaceOnUse">
<stop stop-color="#FF7E7E"/>
<stop offset="1" stop-color="#8F00FF"/>
</linearGradient>
<linearGradient id="paint4_linear_129_132" x1="514.224" y1="124.199" x2="-183.307" y2="810.155" gradientUnits="userSpaceOnUse">
<stop stop-color="#FF7E7E"/>
<stop offset="1" stop-color="#8F00FF"/>
</linearGradient>
<linearGradient id="paint5_linear_129_132" x1="752.651" y1="366.65" x2="55.1201" y2="1052.61" gradientUnits="userSpaceOnUse">
<stop stop-color="#FF7E7E"/>
<stop offset="1" stop-color="#8F00FF"/>
</linearGradient>
<linearGradient id="paint6_linear_129_132" x1="633.972" y1="245.968" x2="-63.5587" y2="931.923" gradientUnits="userSpaceOnUse">
<stop stop-color="#FF7E7E"/>
<stop offset="1" stop-color="#8F00FF"/>
</linearGradient>
<linearGradient id="paint7_linear_129_132" x1="872.399" y1="488.419" x2="174.868" y2="1174.37" gradientUnits="userSpaceOnUse">
<stop stop-color="#FF7E7E"/>
<stop offset="1" stop-color="#8F00FF"/>
</linearGradient>
<linearGradient id="paint8_linear_129_132" x1="499.255" y1="108.978" x2="-198.275" y2="794.933" gradientUnits="userSpaceOnUse">
<stop stop-color="#FF7E7E"/>
<stop offset="1" stop-color="#8F00FF"/>
</linearGradient>
<linearGradient id="paint9_linear_129_132" x1="737.682" y1="351.429" x2="40.1518" y2="1037.38" gradientUnits="userSpaceOnUse">
<stop stop-color="#FF7E7E"/>
<stop offset="1" stop-color="#8F00FF"/>
</linearGradient>
<linearGradient id="paint10_linear_129_132" x1="619.003" y1="230.747" x2="-78.5272" y2="916.702" gradientUnits="userSpaceOnUse">
<stop stop-color="#FF7E7E"/>
<stop offset="1" stop-color="#8F00FF"/>
</linearGradient>
<linearGradient id="paint11_linear_129_132" x1="857.431" y1="473.197" x2="159.9" y2="1159.15" gradientUnits="userSpaceOnUse">
<stop stop-color="#FF7E7E"/>
<stop offset="1" stop-color="#8F00FF"/>
</linearGradient>
<linearGradient id="paint12_linear_129_132" x1="484.287" y1="93.757" x2="-213.244" y2="779.712" gradientUnits="userSpaceOnUse">
<stop stop-color="#FF7E7E"/>
<stop offset="1" stop-color="#8F00FF"/>
</linearGradient>
<linearGradient id="paint13_linear_129_132" x1="722.714" y1="336.207" x2="25.1833" y2="1022.16" gradientUnits="userSpaceOnUse">
<stop stop-color="#FF7E7E"/>
<stop offset="1" stop-color="#8F00FF"/>
</linearGradient>
<linearGradient id="paint14_linear_129_132" x1="604.035" y1="215.526" x2="-93.4957" y2="901.481" gradientUnits="userSpaceOnUse">
<stop stop-color="#FF7E7E"/>
<stop offset="1" stop-color="#8F00FF"/>
</linearGradient>
<linearGradient id="paint15_linear_129_132" x1="842.462" y1="457.976" x2="144.931" y2="1143.93" gradientUnits="userSpaceOnUse">
<stop stop-color="#FF7E7E"/>
<stop offset="1" stop-color="#8F00FF"/>
</linearGradient>
<linearGradient id="paint16_linear_129_132" x1="469.318" y1="78.5359" x2="-228.212" y2="764.491" gradientUnits="userSpaceOnUse">
<stop stop-color="#FF7E7E"/>
<stop offset="1" stop-color="#8F00FF"/>
</linearGradient>
<linearGradient id="paint17_linear_129_132" x1="707.745" y1="320.986" x2="10.2148" y2="1006.94" gradientUnits="userSpaceOnUse">
<stop stop-color="#FF7E7E"/>
<stop offset="1" stop-color="#8F00FF"/>
</linearGradient>
<linearGradient id="paint18_linear_129_132" x1="589.066" y1="200.305" x2="-108.464" y2="886.26" gradientUnits="userSpaceOnUse">
<stop stop-color="#FF7E7E"/>
<stop offset="1" stop-color="#8F00FF"/>
</linearGradient>
<linearGradient id="paint19_linear_129_132" x1="827.493" y1="442.755" x2="129.963" y2="1128.71" gradientUnits="userSpaceOnUse">
<stop stop-color="#FF7E7E"/>
<stop offset="1" stop-color="#8F00FF"/>
</linearGradient>
<linearGradient id="paint20_linear_129_132" x1="454.35" y1="63.3148" x2="-243.181" y2="749.27" gradientUnits="userSpaceOnUse">
<stop stop-color="#FF7E7E"/>
<stop offset="1" stop-color="#8F00FF"/>
</linearGradient>
<linearGradient id="paint21_linear_129_132" x1="692.777" y1="305.765" x2="-4.75372" y2="991.721" gradientUnits="userSpaceOnUse">
<stop stop-color="#FF7E7E"/>
<stop offset="1" stop-color="#8F00FF"/>
</linearGradient>
<linearGradient id="paint22_linear_129_132" x1="574.098" y1="185.084" x2="-123.433" y2="871.039" gradientUnits="userSpaceOnUse">
<stop stop-color="#FF7E7E"/>
<stop offset="1" stop-color="#8F00FF"/>
</linearGradient>
<linearGradient id="paint23_linear_129_132" x1="812.525" y1="427.534" x2="114.994" y2="1113.49" gradientUnits="userSpaceOnUse">
<stop stop-color="#FF7E7E"/>
<stop offset="1" stop-color="#8F00FF"/>
</linearGradient>
<linearGradient id="paint24_linear_129_132" x1="439.381" y1="48.0937" x2="-258.149" y2="734.049" gradientUnits="userSpaceOnUse">
<stop stop-color="#FF7E7E"/>
<stop offset="1" stop-color="#8F00FF"/>
</linearGradient>
<linearGradient id="paint25_linear_129_132" x1="677.808" y1="290.544" x2="-19.7222" y2="976.499" gradientUnits="userSpaceOnUse">
<stop stop-color="#FF7E7E"/>
<stop offset="1" stop-color="#8F00FF"/>
</linearGradient>
<linearGradient id="paint26_linear_129_132" x1="559.129" y1="169.862" x2="-138.401" y2="855.818" gradientUnits="userSpaceOnUse">
<stop stop-color="#FF7E7E"/>
<stop offset="1" stop-color="#8F00FF"/>
</linearGradient>
<linearGradient id="paint27_linear_129_132" x1="797.557" y1="412.313" x2="100.026" y2="1098.27" gradientUnits="userSpaceOnUse">
<stop stop-color="#FF7E7E"/>
<stop offset="1" stop-color="#8F00FF"/>
</linearGradient>
<linearGradient id="paint28_linear_129_132" x1="424.413" y1="32.8726" x2="-273.118" y2="718.828" gradientUnits="userSpaceOnUse">
<stop stop-color="#FF7E7E"/>
<stop offset="1" stop-color="#8F00FF"/>
</linearGradient>
<linearGradient id="paint29_linear_129_132" x1="662.84" y1="275.323" x2="-34.6907" y2="961.278" gradientUnits="userSpaceOnUse">
<stop stop-color="#FF7E7E"/>
<stop offset="1" stop-color="#8F00FF"/>
</linearGradient>
<linearGradient id="paint30_linear_129_132" x1="544.161" y1="154.641" x2="-153.37" y2="840.597" gradientUnits="userSpaceOnUse">
<stop stop-color="#FF7E7E"/>
<stop offset="1" stop-color="#8F00FF"/>
</linearGradient>
<linearGradient id="paint31_linear_129_132" x1="782.588" y1="397.092" x2="85.0573" y2="1083.05" gradientUnits="userSpaceOnUse">
<stop stop-color="#FF7E7E"/>
<stop offset="1" stop-color="#8F00FF"/>
</linearGradient>
<linearGradient id="paint32_linear_129_132" x1="1702.52" y1="-62.7321" x2="1004.99" y2="623.223" gradientUnits="userSpaceOnUse">
<stop stop-color="#FF7E7E"/>
<stop offset="1" stop-color="#8F00FF"/>
</linearGradient>
<linearGradient id="paint33_linear_129_132" x1="1940.95" y1="179.718" x2="1243.41" y2="865.674" gradientUnits="userSpaceOnUse">
<stop stop-color="#FF7E7E"/>
<stop offset="1" stop-color="#8F00FF"/>
</linearGradient>
<linearGradient id="paint34_linear_129_132" x1="1822.27" y1="59.0367" x2="1124.74" y2="744.992" gradientUnits="userSpaceOnUse">
<stop stop-color="#FF7E7E"/>
<stop offset="1" stop-color="#8F00FF"/>
</linearGradient>
<linearGradient id="paint35_linear_129_132" x1="2060.69" y1="301.487" x2="1363.16" y2="987.442" gradientUnits="userSpaceOnUse">
<stop stop-color="#FF7E7E"/>
<stop offset="1" stop-color="#8F00FF"/>
</linearGradient>
<linearGradient id="paint36_linear_129_132" x1="1716.42" y1="-48.5982" x2="1018.89" y2="637.357" gradientUnits="userSpaceOnUse">
<stop stop-color="#FF7E7E"/>
<stop offset="1" stop-color="#8F00FF"/>
</linearGradient>
<linearGradient id="paint37_linear_129_132" x1="1954.84" y1="193.852" x2="1257.31" y2="879.808" gradientUnits="userSpaceOnUse">
<stop stop-color="#FF7E7E"/>
<stop offset="1" stop-color="#8F00FF"/>
</linearGradient>
<linearGradient id="paint38_linear_129_132" x1="1836.17" y1="73.1707" x2="1138.64" y2="759.126" gradientUnits="userSpaceOnUse">
<stop stop-color="#FF7E7E"/>
<stop offset="1" stop-color="#8F00FF"/>
</linearGradient>
<linearGradient id="paint39_linear_129_132" x1="2074.59" y1="315.621" x2="1377.06" y2="1001.58" gradientUnits="userSpaceOnUse">
<stop stop-color="#FF7E7E"/>
<stop offset="1" stop-color="#8F00FF"/>
</linearGradient>
<linearGradient id="paint40_linear_129_132" x1="1731.39" y1="-33.3771" x2="1033.86" y2="652.578" gradientUnits="userSpaceOnUse">
<stop stop-color="#FF7E7E"/>
<stop offset="1" stop-color="#8F00FF"/>
</linearGradient>
<linearGradient id="paint41_linear_129_132" x1="1969.81" y1="209.073" x2="1272.28" y2="895.029" gradientUnits="userSpaceOnUse">
<stop stop-color="#FF7E7E"/>
<stop offset="1" stop-color="#8F00FF"/>
</linearGradient>
<linearGradient id="paint42_linear_129_132" x1="1851.13" y1="88.3917" x2="1153.6" y2="774.347" gradientUnits="userSpaceOnUse">
<stop stop-color="#FF7E7E"/>
<stop offset="1" stop-color="#8F00FF"/>
</linearGradient>
<linearGradient id="paint43_linear_129_132" x1="2089.56" y1="330.842" x2="1392.03" y2="1016.8" gradientUnits="userSpaceOnUse">
<stop stop-color="#FF7E7E"/>
<stop offset="1" stop-color="#8F00FF"/>
</linearGradient>
<linearGradient id="paint44_linear_129_132" x1="1746.35" y1="-18.1559" x2="1048.82" y2="667.799" gradientUnits="userSpaceOnUse">
<stop stop-color="#FF7E7E"/>
<stop offset="1" stop-color="#8F00FF"/>
</linearGradient>
<linearGradient id="paint45_linear_129_132" x1="1984.78" y1="224.294" x2="1287.25" y2="910.25" gradientUnits="userSpaceOnUse">
<stop stop-color="#FF7E7E"/>
<stop offset="1" stop-color="#8F00FF"/>
</linearGradient>
<linearGradient id="paint46_linear_129_132" x1="1866.1" y1="103.613" x2="1168.57" y2="789.568" gradientUnits="userSpaceOnUse">
<stop stop-color="#FF7E7E"/>
<stop offset="1" stop-color="#8F00FF"/>
</linearGradient>
<linearGradient id="paint47_linear_129_132" x1="2104.53" y1="346.063" x2="1407" y2="1032.02" gradientUnits="userSpaceOnUse">
<stop stop-color="#FF7E7E"/>
<stop offset="1" stop-color="#8F00FF"/>
</linearGradient>
<linearGradient id="paint48_linear_129_132" x1="1761.32" y1="-2.93492" x2="1063.79" y2="683.02" gradientUnits="userSpaceOnUse">
<stop stop-color="#FF7E7E"/>
<stop offset="1" stop-color="#8F00FF"/>
</linearGradient>
<linearGradient id="paint49_linear_129_132" x1="1999.75" y1="239.516" x2="1302.22" y2="925.471" gradientUnits="userSpaceOnUse">
<stop stop-color="#FF7E7E"/>
<stop offset="1" stop-color="#8F00FF"/>
</linearGradient>
<linearGradient id="paint50_linear_129_132" x1="1881.07" y1="118.834" x2="1183.54" y2="804.789" gradientUnits="userSpaceOnUse">
<stop stop-color="#FF7E7E"/>
<stop offset="1" stop-color="#8F00FF"/>
</linearGradient>
<linearGradient id="paint51_linear_129_132" x1="2119.5" y1="361.284" x2="1421.97" y2="1047.24" gradientUnits="userSpaceOnUse">
<stop stop-color="#FF7E7E"/>
<stop offset="1" stop-color="#8F00FF"/>
</linearGradient>
<linearGradient id="paint52_linear_129_132" x1="1776.29" y1="12.2862" x2="1078.76" y2="698.242" gradientUnits="userSpaceOnUse">
<stop stop-color="#FF7E7E"/>
<stop offset="1" stop-color="#8F00FF"/>
</linearGradient>
<linearGradient id="paint53_linear_129_132" x1="2014.72" y1="254.736" x2="1317.19" y2="940.692" gradientUnits="userSpaceOnUse">
<stop stop-color="#FF7E7E"/>
<stop offset="1" stop-color="#8F00FF"/>
</linearGradient>
<linearGradient id="paint54_linear_129_132" x1="1896.04" y1="134.055" x2="1198.51" y2="820.01" gradientUnits="userSpaceOnUse">
<stop stop-color="#FF7E7E"/>
<stop offset="1" stop-color="#8F00FF"/>
</linearGradient>
<linearGradient id="paint55_linear_129_132" x1="2134.47" y1="376.505" x2="1436.94" y2="1062.46" gradientUnits="userSpaceOnUse">
<stop stop-color="#FF7E7E"/>
<stop offset="1" stop-color="#8F00FF"/>
</linearGradient>
<linearGradient id="paint56_linear_129_132" x1="1791.26" y1="27.5074" x2="1093.73" y2="713.463" gradientUnits="userSpaceOnUse">
<stop stop-color="#FF7E7E"/>
<stop offset="1" stop-color="#8F00FF"/>
</linearGradient>
<linearGradient id="paint57_linear_129_132" x1="2029.69" y1="269.958" x2="1332.16" y2="955.913" gradientUnits="userSpaceOnUse">
<stop stop-color="#FF7E7E"/>
<stop offset="1" stop-color="#8F00FF"/>
</linearGradient>
<linearGradient id="paint58_linear_129_132" x1="1911.01" y1="149.276" x2="1213.48" y2="835.232" gradientUnits="userSpaceOnUse">
<stop stop-color="#FF7E7E"/>
<stop offset="1" stop-color="#8F00FF"/>
</linearGradient>
<linearGradient id="paint59_linear_129_132" x1="2149.44" y1="391.726" x2="1451.9" y2="1077.68" gradientUnits="userSpaceOnUse">
<stop stop-color="#FF7E7E"/>
<stop offset="1" stop-color="#8F00FF"/>
</linearGradient>
<linearGradient id="paint60_linear_129_132" x1="1806.23" y1="42.7283" x2="1108.7" y2="728.684" gradientUnits="userSpaceOnUse">
<stop stop-color="#FF7E7E"/>
<stop offset="1" stop-color="#8F00FF"/>
</linearGradient>
<linearGradient id="paint61_linear_129_132" x1="2044.66" y1="285.179" x2="1347.13" y2="971.134" gradientUnits="userSpaceOnUse">
<stop stop-color="#FF7E7E"/>
<stop offset="1" stop-color="#8F00FF"/>
</linearGradient>
<linearGradient id="paint62_linear_129_132" x1="1925.98" y1="164.497" x2="1228.45" y2="850.452" gradientUnits="userSpaceOnUse">
<stop stop-color="#FF7E7E"/>
<stop offset="1" stop-color="#8F00FF"/>
</linearGradient>
<linearGradient id="paint63_linear_129_132" x1="2164.4" y1="406.948" x2="1466.87" y2="1092.9" gradientUnits="userSpaceOnUse">
<stop stop-color="#FF7E7E"/>
<stop offset="1" stop-color="#8F00FF"/>
</linearGradient>
</defs>
</svg>
